<?xml version="1.0" standalone="no"?>
<!DOCTYPE svg PUBLIC "-//W3C//DTD SVG 20010904//EN"
 "http://www.w3.org/TR/2001/REC-SVG-20010904/DTD/svg10.dtd">
<svg version="1.0" xmlns="http://www.w3.org/2000/svg"
 width="914.000000pt" height="914.000000pt" viewBox="0 0 914.000000 914.000000"
 preserveAspectRatio="xMidYMid meet">
<metadata>
Created by potrace 1.14, written by Peter Selinger 2001-2017
</metadata>
<g transform="translate(0.000000,914.000000) scale(0.100000,-0.100000)"
fill="#000000" stroke="none">
<path d="M4480 9092 c-19 -9 -38 -21 -41 -25 -3 -5 -10 -9 -15 -8 -5 0 -263
-127 -574 -281 -311 -155 -567 -281 -570 -280 -3 0 -10 -4 -16 -9 -6 -5 -96
-51 -200 -102 -104 -51 -200 -100 -214 -107 -14 -8 -27 -15 -30 -15 -17 -3
-626 -311 -632 -319 -4 -6 -8 -8 -8 -4 0 3 -118 -53 -262 -125 -145 -72 -265
-131 -268 -132 -3 0 -16 -7 -30 -15 -27 -15 -320 -160 -807 -401 l-312 -154
-1 -2543 0 -2543 1035 -515 c569 -283 1038 -515 1042 -516 5 -1 28 -13 53 -28
25 -14 65 -34 90 -45 25 -11 67 -32 95 -47 47 -25 134 -69 145 -73 30 -10 126
-60 128 -67 2 -4 8 -8 13 -8 14 0 463 -223 470 -233 3 -5 8 -7 10 -6 2 2 219
-104 481 -234 263 -130 480 -237 482 -237 2 0 9 14 16 30 16 38 23 38 39 -3
l13 -33 112 56 c61 30 114 59 117 63 3 5 8 8 10 7 7 -3 64 24 70 33 3 5 10 9
15 9 13 -1 2378 1181 2385 1191 3 5 9 8 13 7 9 -1 540 263 547 273 3 5 10 9
15 9 5 0 174 81 376 181 l367 182 0 2541 c1 1963 -2 2543 -11 2552 -7 7 -20
12 -29 12 -10 0 -19 3 -21 8 -1 4 -82 45 -178 92 -96 47 -176 88 -178 93 -2 4
-8 7 -14 7 -5 0 -173 81 -373 180 -200 99 -367 180 -370 180 -4 0 -19 9 -35
20 -15 11 -30 17 -34 13 -3 -3 -6 -1 -6 5 0 7 -5 12 -10 12 -6 0 -279 133
-608 296 -328 163 -635 314 -682 337 -47 23 -86 45 -88 49 -2 4 -9 8 -15 8
-11 0 -100 44 -950 465 -413 204 -439 216 -452 198 -8 -10 -15 -24 -15 -30 0
-23 -17 -13 -30 17 -14 34 -13 34 -60 12z"/>
</g>
</svg>
