<svg width="544" height="364" viewBox="0 0 544 364" fill="none" xmlns="http://www.w3.org/2000/svg">
<g clip-path="url(#clip0_15_2)">
<rect width="544" height="364" fill="white"/>
<path d="M311 181.386L271 369H549.5V-5H272L232 181.386H311Z" fill="#FF4D4F"/>
<path d="M271 369L311 181.386H232L272 -5H-4.5V369H271Z" fill="#1677FF"/>
<path d="M272 -5L232 181.386H311L271 369M272 -5H-4.5V369H271M272 -5H549.5V369H271" stroke="#141414" stroke-width="8"/>
<mask id="mask0_15_2" style="mask-type:alpha" maskUnits="userSpaceOnUse" x="110" y="0" width="323" height="364">
<path d="M430 82.1083L271.103 3.02198L232.173 181.166H310.827L271.897 360.508L430 281.022V82.1083Z" fill="white"/>
<path d="M271.103 3.02198L113 82.0332V281.022L271.897 360.508M271.103 3.02198L430 82.1083V281.022L271.897 360.508M271.103 3.02198L232.173 181.166H310.827L271.897 360.508" stroke="#141414" stroke-width="5"/>
</mask>
<g mask="url(#mask0_15_2)">
<path d="M281.439 191.8C280.932 190.379 281.093 188.805 281.878 187.517L287.906 177.628C288.091 177.325 288.308 177.04 288.556 176.785C291.315 173.938 293.235 172.588 296.924 170.781C301.036 168.9 304.074 167.985 307.649 167.585C310.724 167.242 314.093 168.08 314.976 168.322C315.125 168.362 315.274 168.397 315.426 168.423V168.423C316.753 168.645 318.09 168.116 318.94 167.073C321.737 163.645 323.975 161.498 327.632 158.245C327.815 158.082 328.013 157.931 328.219 157.797C332.426 155.07 335.043 153.811 339.826 152.008C344.061 150.351 346.524 150.004 350.949 149.611C352.453 149.332 354.335 149.351 356.172 149.525C359.682 149.859 366.793 152.595 369.949 154.166C370.764 154.571 371.556 154.971 372.262 155.33C372.619 155.511 372.952 155.735 373.253 155.999C376.248 158.617 377.863 160.365 380.345 163.591C382.744 166.463 383.468 168.016 384.715 170.781C385.933 174.411 386.258 176.412 386.701 179.968C387.129 184.011 387.078 186.349 386.744 190.256C386.716 190.585 386.654 190.912 386.559 191.229C385.251 195.614 384.264 198.005 382.331 201.936C379.881 205.582 378.374 207.362 375.578 210.324C373.732 212.424 372.565 213.763 370.827 215.776C370.295 216.392 369.898 217.126 369.783 217.932C369.696 218.541 369.669 219.114 369.709 219.756C369.794 221.14 370.656 222.403 371.962 222.871C372.31 222.996 372.665 223.098 373.049 223.187C374.161 223.447 375.328 223.202 376.296 222.598C378.2 221.409 379.251 220.513 380.345 219.111C381.327 217.793 382.075 216.809 382.678 216.059C383.696 214.794 385.49 215.01 386.43 216.334V216.334C386.609 216.586 386.748 216.866 386.835 217.162C388.088 221.436 388.022 223.937 388.29 228.298C388.405 234.188 387.979 237.41 386.701 243.077C385.208 248.14 384.197 250.871 381.934 255.459C379.975 258.943 378.693 260.83 376.451 264.131L376.372 264.246C373.571 267.588 371.846 269.268 368.428 271.836C365.243 274.418 362.9 275.398 358.099 276.629C353.755 277.308 351.32 277.423 346.976 276.629C343.366 275.478 341.451 274.583 338.937 272.134C338.734 271.937 338.552 271.719 338.39 271.487C336.522 268.81 335.643 267.177 335.059 264.246C334.813 260.732 334.867 258.79 335.854 255.459C337.116 250.616 338.026 248.124 339.826 243.876C342.116 239.254 343.585 236.633 346.7 232.277C346.883 232.022 347.044 231.749 347.176 231.464C349.354 226.789 350.641 224.027 352.648 219.727C352.838 219.319 352.974 218.886 353.047 218.442C353.67 214.668 353.917 212.296 353.756 208.496C353.74 208.119 353.678 207.743 353.571 207.381C352.591 204.074 351.635 202.178 349.36 199.14C347.49 197.057 346.191 195.667 343.813 194.06C342.164 192.946 341.111 191.064 341.413 189.096C341.587 187.956 341.821 186.776 342.21 185.16C342.629 181.274 342.707 179.148 342.21 175.574C341.895 173.315 341.479 172.079 340.34 170.607C340.012 170.183 339.597 169.832 339.118 169.591C338.478 169.268 337.903 169.076 337.204 168.949C336.328 168.79 335.409 168.955 334.666 169.447C333.878 169.969 333.357 170.539 332.865 171.326C332.446 171.998 332.278 172.792 332.278 173.584V178.769V187.422C332.278 187.776 332.229 188.129 332.132 188.47V188.47C331.735 189.869 330.582 190.928 329.149 191.174C326.533 191.624 324.394 191.902 321.316 192.245C320.686 192.315 320.073 192.502 319.514 192.801C317.402 193.927 315.85 194.78 313.507 196.118C312.791 196.527 312.199 197.118 311.739 197.802C311.603 198.006 311.465 198.203 311.317 198.402C310.378 199.665 309.965 201.369 310.568 202.822V202.822C311.183 204.304 312.643 205.122 314.248 205.125C314.405 205.126 314.57 205.126 314.745 205.127C315.563 205.129 316.371 204.933 317.089 204.543C318.784 203.623 319.879 202.967 321.553 201.936C324.968 199.977 326.881 199.411 330.292 199.14C332.574 199.268 333.073 199.539 335.854 200.338C337.684 200.864 338.856 201.509 340.104 202.151C341.414 202.827 342.477 203.942 342.941 205.341L343.677 207.56C343.758 207.805 343.821 208.056 343.861 208.31C344.317 211.214 344.227 212.887 343.857 215.51C343.819 215.78 343.757 216.047 343.673 216.306C342.566 219.721 341.69 221.618 339.826 224.703C338.217 228.083 336.76 229.536 333.867 231.893C331.322 234.003 329.878 234.902 327.614 236.039C327.283 236.205 326.932 236.331 326.571 236.416C321.704 237.563 318.871 237.933 314.005 238.284C312.045 238.547 310.656 238.694 308.833 238.587C307.223 238.493 305.69 239.401 305.182 240.932V240.932C304.753 242.226 305.168 243.641 306.19 244.543C306.396 244.725 306.599 244.907 306.81 245.098C307.365 245.603 308.028 245.977 308.757 246.155C311.325 246.783 312.845 246.95 315.197 247.071C317.872 247.114 319.411 247.116 321.807 247.08C322.166 247.074 322.524 247.03 322.873 246.947C324.323 246.604 325.304 246.366 327.114 245.873V245.873C327.976 245.526 328.881 246.267 328.697 247.177C328.106 250.087 327.49 252.277 326.228 255.491C326.028 255.999 325.906 256.536 325.878 257.082C325.684 260.866 325.726 263.147 325.88 266.528C325.907 267.132 326.046 267.727 326.287 268.281C327.233 270.448 327.884 271.846 329.1 273.833C330.531 276.298 331.457 277.553 333.47 279.425C335.74 281.579 337.314 282.493 340.182 283.644C340.473 283.761 340.775 283.847 341.083 283.906L345.328 284.706C346.284 284.886 346.976 285.721 346.976 286.694V286.694C346.976 287.159 346.816 287.611 346.521 287.97C345.125 289.67 344.229 290.659 342.972 291.86C342.73 292.091 342.463 292.295 342.179 292.47C340.815 293.307 339.83 293.887 338.2 294.801C337.96 294.935 337.709 295.049 337.452 295.143C335.506 295.854 334.363 296.378 333.333 297.211C332.88 297.578 332.547 298.068 332.292 298.593C331.271 300.692 330.545 302.01 329.1 303.79C327.975 305.153 327.042 305.97 324.731 307.384C321.998 309.184 320.278 310.135 317.225 311.572C316.934 311.709 316.628 311.818 316.315 311.894C313.552 312.572 311.677 312.938 308.084 313.329C307.795 313.361 307.502 313.366 307.212 313.345C301.407 312.924 298.133 312.276 293.074 310.378C292.728 310.248 292.399 310.077 292.091 309.872C289.849 308.376 288.523 307.442 286.993 305.787C282.958 301.835 281.399 299.284 279.711 295.382C279.271 294.364 279.208 293.224 279.503 292.155L283.02 279.425L287.787 267.442V267.442C288.384 265.841 290.348 265.256 291.724 266.27L294.434 268.268C294.768 268.515 295.071 268.803 295.334 269.125L299.768 274.537C300.249 275.125 300.59 275.814 300.765 276.553L302.17 282.488C302.376 283.359 302.345 284.269 302.079 285.124L301.094 288.294C300.718 289.506 300.906 290.823 301.607 291.881L301.891 292.309C302.91 293.846 304.917 294.379 306.564 293.551V293.551C307.269 293.197 307.839 292.624 308.19 291.918L309.38 289.526C309.55 289.184 309.68 288.823 309.768 288.451L311.303 281.971C311.511 281.089 311.477 280.167 311.202 279.303L308.677 271.371C308.523 270.885 308.294 270.425 308 270.008L302.124 261.666C301.837 261.258 301.49 260.896 301.096 260.591L296.527 257.057L290.87 252.567C289.675 251.618 288.979 250.176 288.979 248.651V229.097L286.264 205.699C286.22 205.322 286.134 204.951 286.006 204.594L281.439 191.8Z" fill="#141414"/>
<path d="M376.372 264.246C373.571 267.588 371.846 269.268 368.428 271.836C365.243 274.418 362.9 275.398 358.099 276.629C353.755 277.308 351.32 277.423 346.976 276.629C343.366 275.478 341.451 274.583 338.937 272.134C338.734 271.937 338.552 271.719 338.39 271.487C336.522 268.81 335.643 267.177 335.059 264.246C334.813 260.732 334.867 258.79 335.854 255.459C337.116 250.616 338.026 248.124 339.826 243.876C342.116 239.254 343.585 236.633 346.7 232.277C346.883 232.022 347.044 231.749 347.176 231.464C349.354 226.789 350.641 224.027 352.648 219.727C352.838 219.319 352.974 218.886 353.047 218.442C353.67 214.668 353.917 212.296 353.756 208.496C353.74 208.119 353.678 207.743 353.571 207.381C352.591 204.074 351.635 202.178 349.36 199.14C347.49 197.057 346.191 195.667 343.813 194.06C342.164 192.946 341.111 191.064 341.413 189.096C341.587 187.956 341.821 186.776 342.21 185.16C342.629 181.274 342.707 179.148 342.21 175.574C341.895 173.315 341.479 172.079 340.34 170.607C340.012 170.183 339.597 169.832 339.118 169.591C338.478 169.268 337.903 169.076 337.204 168.949C336.328 168.79 335.409 168.955 334.666 169.447C333.878 169.969 333.357 170.539 332.865 171.326C332.446 171.998 332.278 172.792 332.278 173.584V178.769V187.422C332.278 187.776 332.229 188.129 332.132 188.47V188.47C331.735 189.869 330.582 190.928 329.149 191.174C326.533 191.624 324.394 191.902 321.316 192.245C320.686 192.315 320.073 192.502 319.514 192.801C317.402 193.927 315.85 194.78 313.507 196.118C312.791 196.527 312.199 197.118 311.739 197.802C311.603 198.006 311.465 198.203 311.317 198.402C310.378 199.665 309.965 201.369 310.568 202.822V202.822C311.183 204.304 312.643 205.122 314.248 205.125C314.405 205.126 314.57 205.126 314.745 205.127C315.563 205.129 316.371 204.933 317.089 204.543C318.784 203.623 319.879 202.967 321.553 201.936C324.968 199.977 326.881 199.411 330.292 199.14C332.574 199.268 333.073 199.539 335.854 200.338C337.684 200.864 338.856 201.509 340.104 202.151C341.414 202.827 342.477 203.942 342.941 205.341L343.677 207.56C343.758 207.805 343.821 208.056 343.861 208.31C344.317 211.214 344.227 212.887 343.857 215.51C343.819 215.78 343.757 216.047 343.673 216.306C342.566 219.721 341.69 221.618 339.826 224.703C338.217 228.083 336.76 229.536 333.867 231.893C331.322 234.003 329.878 234.902 327.614 236.039C327.283 236.205 326.932 236.331 326.571 236.416C321.704 237.563 318.871 237.933 314.005 238.284C312.045 238.547 310.656 238.694 308.833 238.587C307.223 238.493 305.69 239.401 305.182 240.932V240.932C304.753 242.226 305.168 243.641 306.19 244.543C306.396 244.725 306.599 244.907 306.81 245.098C307.365 245.603 308.028 245.977 308.757 246.155C311.325 246.783 312.845 246.95 315.197 247.071C317.872 247.114 319.411 247.116 321.807 247.08C322.166 247.074 322.524 247.03 322.873 246.947C324.323 246.604 325.304 246.366 327.114 245.873V245.873C327.976 245.526 328.881 246.267 328.697 247.177C328.106 250.087 327.49 252.277 326.228 255.491C326.028 255.999 325.906 256.536 325.878 257.082C325.684 260.866 325.726 263.147 325.88 266.528C325.907 267.132 326.046 267.727 326.287 268.281C327.233 270.448 327.884 271.846 329.1 273.833C330.531 276.298 331.457 277.553 333.47 279.425C335.74 281.579 337.314 282.493 340.182 283.644C340.473 283.761 340.775 283.847 341.083 283.906L345.328 284.706C346.284 284.886 346.976 285.721 346.976 286.694V286.694C346.976 287.159 346.816 287.611 346.521 287.97C345.125 289.67 344.229 290.659 342.972 291.86C342.73 292.091 342.463 292.295 342.179 292.47C340.815 293.307 339.83 293.887 338.2 294.801C337.96 294.935 337.709 295.049 337.452 295.143C335.506 295.854 334.363 296.378 333.333 297.211C332.88 297.578 332.547 298.068 332.292 298.593C331.271 300.692 330.545 302.01 329.1 303.79C327.975 305.153 327.042 305.97 324.731 307.384C321.998 309.184 320.278 310.135 317.225 311.572C316.934 311.709 316.628 311.818 316.315 311.894C313.552 312.572 311.677 312.938 308.084 313.329C307.795 313.361 307.502 313.366 307.212 313.345C301.407 312.924 298.133 312.276 293.074 310.378C292.728 310.248 292.399 310.077 292.091 309.872C289.849 308.376 288.523 307.442 286.993 305.787C282.958 301.835 281.399 299.284 279.711 295.382C279.271 294.364 279.208 293.224 279.503 292.155L283.02 279.425L287.787 267.442V267.442C288.384 265.841 290.348 265.256 291.724 266.27L294.434 268.268C294.768 268.515 295.071 268.803 295.334 269.125L299.768 274.537C300.249 275.125 300.59 275.814 300.765 276.553L302.17 282.488C302.376 283.359 302.345 284.269 302.079 285.124L301.094 288.294C300.718 289.506 300.906 290.823 301.607 291.881L301.891 292.309C302.91 293.846 304.917 294.379 306.564 293.551V293.551C307.269 293.197 307.839 292.624 308.19 291.918L309.38 289.526C309.55 289.184 309.68 288.823 309.768 288.451L311.303 281.971C311.511 281.089 311.477 280.167 311.202 279.303L308.677 271.371C308.523 270.885 308.294 270.425 308 270.008L302.124 261.666C301.837 261.258 301.49 260.896 301.096 260.591L296.527 257.057L290.87 252.567C289.675 251.618 288.979 250.176 288.979 248.651V229.097L286.264 205.699C286.22 205.322 286.134 204.951 286.006 204.594L281.439 191.8C280.932 190.379 281.093 188.805 281.878 187.517L287.906 177.628C288.091 177.325 288.308 177.04 288.556 176.785C291.315 173.938 293.235 172.588 296.924 170.781C301.036 168.9 304.074 167.985 307.649 167.585C310.724 167.242 314.093 168.08 314.976 168.322C315.125 168.362 315.274 168.397 315.426 168.423V168.423C316.753 168.645 318.09 168.116 318.94 167.073C321.737 163.645 323.975 161.498 327.632 158.245C327.815 158.082 328.013 157.931 328.219 157.797C332.426 155.07 335.043 153.811 339.826 152.008C344.061 150.351 346.524 150.004 350.949 149.611C352.453 149.332 354.335 149.351 356.172 149.525C359.682 149.859 366.793 152.595 369.949 154.166C370.764 154.571 371.556 154.971 372.262 155.33C372.619 155.511 372.952 155.735 373.253 155.999C376.248 158.617 377.863 160.365 380.345 163.591C382.744 166.463 383.468 168.016 384.715 170.781C385.933 174.411 386.258 176.412 386.701 179.968C387.129 184.011 387.078 186.349 386.744 190.256C386.716 190.585 386.654 190.912 386.559 191.229C385.251 195.614 384.264 198.005 382.331 201.936C379.881 205.582 378.374 207.362 375.578 210.324C373.732 212.424 372.565 213.763 370.827 215.776C370.295 216.392 369.898 217.126 369.783 217.932C369.696 218.541 369.669 219.114 369.709 219.756C369.794 221.14 370.656 222.403 371.962 222.871C372.31 222.996 372.665 223.098 373.049 223.187C374.161 223.447 375.328 223.202 376.296 222.598C378.2 221.409 379.251 220.513 380.345 219.111C381.327 217.793 382.075 216.809 382.678 216.059C383.696 214.794 385.49 215.01 386.43 216.334V216.334C386.609 216.586 386.748 216.866 386.835 217.162C388.088 221.436 388.022 223.937 388.29 228.298C388.405 234.188 387.979 237.41 386.701 243.077C385.208 248.14 384.197 250.871 381.934 255.459C379.975 258.943 378.693 260.83 376.451 264.131M376.372 264.246L376.451 264.131M376.372 264.246C376.399 264.208 376.425 264.169 376.451 264.131" stroke="#141414"/>
<path d="M227.635 169.295C229.635 167.101 232.966 167.267 235.236 169.181C236.564 170.3 238.136 171.295 240.515 172.379C244.884 174.148 247.209 174.561 251.241 174.775L251.315 174.783C251.748 174.827 252.153 174.868 252.538 174.902C255.453 175.16 258.573 177.446 258.391 180.367V180.367L257.728 185.366C257.644 186.002 257.811 186.647 258.195 187.161V187.161C259.414 188.795 258.233 191.118 256.194 191.095L229.873 190.798C227.509 190.771 225.487 189.092 225.026 186.774L223.132 177.252C222.822 175.695 223.271 174.082 224.341 172.908L227.635 169.295Z" fill="#141414"/>
<path d="M251.241 174.775C247.209 174.561 244.884 174.148 240.515 172.379C238.136 171.295 236.564 170.3 235.236 169.181C232.966 167.267 229.635 167.101 227.635 169.295L224.341 172.908C223.271 174.082 222.822 175.695 223.132 177.252L225.026 186.774C225.487 189.092 227.509 190.771 229.873 190.798L256.194 191.095C258.233 191.118 259.414 188.795 258.195 187.161V187.161C257.811 186.647 257.644 186.002 257.728 185.366L258.391 180.367V180.367C258.573 177.446 255.453 175.16 252.538 174.902C252.153 174.868 251.748 174.827 251.315 174.783M251.241 174.775L251.315 174.783M251.241 174.775C251.265 174.778 251.29 174.78 251.315 174.783" stroke="#141414"/>
<path d="M273.883 107.272C273.361 107.051 273.169 104.463 273.189 102.369C273.205 100.668 273.714 98.6749 274.3 97.0778C275.271 94.429 276.404 92.7503 277.9 90.4873C278.872 89.0169 278.933 87.1466 278.181 85.5525C276.709 82.4323 275.868 79.8916 275.157 75.7981C275.101 75.4792 275.079 75.1548 275.09 74.8313C275.233 70.3722 275.526 67.8417 276.177 63.8786C276.236 63.5181 276.336 63.1635 276.475 62.8256C278.325 58.3251 279.809 55.7869 283.417 51.7519C286.537 48.7517 288.443 47.3059 291.765 45.2076C292.025 45.0438 292.3 44.9047 292.586 44.7932C296.933 43.0965 299.576 42.3513 303.928 41.4751C304.288 41.4026 304.657 41.3712 305.024 41.3814C309.834 41.5152 312.62 41.791 317.183 42.9646C321.531 44.4448 323.664 45.5292 327.114 47.7577C331.185 51.1938 333.003 53.2276 335.853 56.9445C337.39 59.344 337.974 60.7492 338.634 63.3353C339.541 66.5192 339.822 68.3088 340.159 71.1766C340.202 71.5396 340.204 71.908 340.165 72.2714C339.74 76.2157 339.373 78.3253 338.634 81.7089C337.426 85.3717 336.876 86.2083 335.853 88.0997C334.773 89.9872 334.124 90.9994 332.675 92.4934C330.526 94.9841 329.202 96.1754 326.717 98.0853C324.862 99.4004 323.782 100.16 321.552 101.68C319.336 103.207 317.993 104.081 315.656 105.414C315.351 105.588 315.064 105.792 314.8 106.024C312.908 107.688 311.677 108.685 309.853 110.02C309.446 110.318 309.084 110.673 308.781 111.076C306.954 113.502 305.705 115.096 303.635 117.623C303.399 117.911 303.197 118.225 303.023 118.553C302.24 120.035 301.171 121.774 300.717 122.502C300.572 122.734 300.444 122.977 300.337 123.229C299.138 126.051 298.49 127.602 297.59 129.785C297.411 130.218 297.294 130.675 297.243 131.141L297.102 132.413C296.988 133.449 297.299 134.487 297.964 135.289V135.289C298.572 136.023 299.433 136.505 300.377 136.641L300.578 136.67C301.308 136.775 302.052 136.693 302.742 136.433L302.87 136.385C304.144 135.904 305.161 134.915 305.678 133.655L307.507 129.187C307.602 128.957 307.713 128.734 307.841 128.52L312.101 121.38C312.31 121.03 312.561 120.706 312.849 120.417L319.973 113.254C320.231 112.995 320.516 112.765 320.824 112.568L323.004 111.173C324.068 110.492 325.197 110.631 325.922 111.666V111.666L328.306 116.059L330.044 120.605C330.209 121.034 330.313 121.484 330.354 121.942L330.562 124.236C330.645 125.154 331.004 126.026 331.592 126.735V126.735C332.291 127.578 333.274 128.143 334.354 128.324V128.324C334.82 128.402 335.297 128.408 335.764 128.34L336.36 128.255C337.312 128.118 338.179 127.632 338.793 126.892V126.892C339.454 126.094 339.768 125.066 339.665 124.035L339.428 121.651L338.706 117.658C338.658 117.392 338.588 117.13 338.498 116.874L336.648 111.666L335.233 108.821C335.117 108.588 334.983 108.364 334.832 108.151L333.119 105.74C333.088 105.696 333.061 105.65 333.037 105.602V105.602C332.825 105.176 332.932 104.66 333.297 104.354L335.059 102.878L339.428 98.4847L342.209 95.2893L344.306 92.1271C344.496 91.8395 344.657 91.5329 344.784 91.2123L346.182 87.7002L346.593 86.735C346.99 85.8045 348.155 85.4934 348.962 86.1025V86.1025L350.154 86.9014L352.343 88.4733C352.735 88.7553 353.085 89.0928 353.381 89.4752L355.715 92.4934L357.812 95.6556C358.003 95.9432 358.163 96.2498 358.291 96.5704L360.482 102.08L361.881 107.001C362.007 107.446 362.071 107.906 362.071 108.368V112.252C362.071 112.658 362.022 113.064 361.924 113.458L361.503 115.151C361.359 115.73 361.464 116.342 361.794 116.839V116.839C361.976 117.114 362.22 117.343 362.507 117.508L364.073 118.408C364.588 118.704 365.152 118.906 365.738 119.004L366.491 119.13C366.984 119.213 367.463 119.369 367.91 119.594L371.208 121.252L374.248 123.29C374.603 123.528 374.926 123.811 375.21 124.131L377.961 127.243L380.479 130.86C380.654 131.111 380.805 131.378 380.931 131.657L382.284 134.649C382.577 135.297 382.728 135.999 382.728 136.709V139.226L383.125 144.419V148.812V148.812C382.96 150.473 380.979 151.244 379.735 150.132L379.153 149.611L377.33 148.084C376.958 147.772 376.543 147.517 376.097 147.325L373.989 146.416L369.958 144.574C369.732 144.471 369.499 144.384 369.26 144.316L364.057 142.821L358.496 142.022L353.712 141.282C353.459 141.243 353.203 141.223 352.947 141.223H347.36C347.105 141.223 346.849 141.243 346.596 141.282L342.186 141.964C341.937 142.003 341.691 142.06 341.451 142.136L335.8 143.911C335.571 143.983 335.348 144.071 335.131 144.175L326.641 148.259C326.427 148.361 326.22 148.479 326.023 148.611L320.772 152.131C320.499 152.315 320.244 152.525 320.011 152.759L315.868 156.924C314.93 157.868 313.654 158.399 312.323 158.399H310.827L303.601 159.125C303.124 159.173 302.657 159.289 302.213 159.47L288.958 164.873C288.446 165.082 287.971 165.375 287.555 165.739L279.047 173.177V173.177C278.328 173.901 277.098 173.596 276.799 172.62L275.956 169.867C275.899 169.678 275.859 169.484 275.839 169.287L275.075 161.993V157.746C275.075 157.383 275.115 157.022 275.193 156.667L276.552 150.518C276.626 150.181 276.736 149.852 276.878 149.537L277.776 147.552C278.334 146.315 278.367 144.905 277.865 143.644L277.856 143.62L275.476 138.492C275.211 137.921 275.056 137.306 275.019 136.679L274.715 131.478C274.69 131.053 274.72 130.627 274.803 130.21L276.496 121.699C276.607 121.139 276.813 120.602 277.106 120.112L281.161 113.317C281.34 113.016 281.551 112.734 281.79 112.478L286.992 106.873L293.348 101.281L299.307 96.4876L304.471 91.2951L307.956 86.7395C308.279 86.3176 308.532 85.8469 308.707 85.3451L311.029 78.6735C311.159 78.3018 311.244 77.9162 311.283 77.5246L311.949 70.8216C311.995 70.3598 311.977 69.8938 311.894 69.4371L311.521 67.3754C311.331 66.3248 310.724 65.3963 309.837 64.8019V64.8019C309.187 64.3665 308.423 64.1341 307.641 64.1341H307.012C306.132 64.1341 305.273 64.3957 304.542 64.8855V64.8855C303.723 65.4341 303.111 66.2394 302.801 67.1746L302.342 68.5605C302.173 69.068 302.088 69.5992 302.088 70.1338V74.7058C302.088 75.1124 302.038 75.5176 301.94 75.9122L301.049 79.4932C300.947 79.9035 300.794 80.2992 300.592 80.6709L298.855 83.8729C298.628 84.292 298.342 84.6765 298.005 85.0146L294.937 88.0997L287.884 94.4039C287.819 94.4616 287.753 94.5174 287.686 94.5718C287.06 95.077 283.702 97.7992 282.623 98.8842V98.8842C281.909 99.6016 276.086 105.988 275.28 106.6C274.65 107.078 274.123 107.373 273.883 107.272Z" fill="#141414" stroke="#141414"/>
<path d="M256.32 51.3722C258.818 50.4653 261.61 51.6653 262.525 54.1604C267.005 66.3848 266.805 75.3508 260.683 86.9947C259.802 88.6707 259.856 90.6892 260.831 92.3122C267.923 104.111 267.894 112.236 259.356 125.607C258.127 127.533 258.267 130.039 259.679 131.835C269.743 144.64 268.479 152.568 256.754 164.107C255.783 165.062 254.441 165.563 253.084 165.44C246.764 164.869 243.256 163.243 239.112 159.626C237.966 158.626 237.415 157.117 237.549 155.603L246.192 58.1189C246.364 56.184 247.64 54.5236 249.466 53.8607L256.32 51.3722Z" fill="#141414" stroke="#141414" stroke-width="5"/>
</g>
<mask id="mask1_15_2" style="mask-type:alpha" maskUnits="userSpaceOnUse" x="110" y="0" width="323" height="364">
<path d="M113 82.0332V281.022L271.897 360.508L310.827 181.166H232.173L271.103 3.02198L113 82.0332Z" fill="white"/>
<path d="M271.103 3.02198L113 82.0332V281.022L271.897 360.508M271.103 3.02198L430 82.1083V281.022L271.897 360.508M271.103 3.02198L232.173 181.166H310.827L271.897 360.508" stroke="black" stroke-width="5"/>
</mask>
<g mask="url(#mask1_15_2)">
<path d="M172.984 107.272C179.513 107.201 183.962 106.701 190.463 104.476C197.532 101.545 201.262 100.034 207.544 97.6859C213.353 95.1277 216.67 93.8445 222.639 91.6945C227.558 90.1542 230.434 89.6455 235.748 89.298C240.631 88.9331 242.857 89.2649 246.343 89.6091C246.954 89.6694 247.565 89.7964 248.154 89.9694C249.169 90.2673 250.883 90.7778 252.457 91.4014C253.488 91.8102 254.611 92.2217 255.608 92.7087C257.118 93.4463 259.342 94.7039 260.775 95.6887" stroke="#141414" stroke-width="3"/>
<path d="M172.984 116.218C179.513 116.147 183.962 115.647 190.463 113.422C197.532 110.491 201.262 108.981 207.544 106.632C213.353 104.074 216.67 102.791 222.639 100.641C227.558 99.1004 230.434 98.5918 235.748 98.2442C240.631 97.8794 242.857 98.2111 246.343 98.5553C246.954 98.6156 247.565 98.7426 248.154 98.9156C249.169 99.2135 250.883 99.724 252.457 100.348C253.488 100.756 254.611 101.168 255.608 101.655C257.118 102.392 259.342 103.65 260.775 104.635" stroke="#141414" stroke-width="3"/>
<path d="M172.984 125.006C179.513 124.935 183.962 124.435 190.463 122.21C197.532 119.278 201.262 117.768 207.544 115.419C213.353 112.861 216.67 111.578 222.639 109.428C227.558 107.888 230.434 107.379 235.748 107.032C240.631 106.667 242.857 106.998 246.343 107.343C246.954 107.403 247.565 107.53 248.154 107.703C249.169 108.001 250.883 108.511 252.457 109.135C253.488 109.544 254.611 109.955 255.608 110.442C257.118 111.18 259.342 112.437 260.775 113.422" stroke="#141414" stroke-width="3"/>
<path d="M172.984 133.793C179.513 133.722 183.962 133.222 190.463 130.997C197.532 128.066 201.262 126.555 207.544 124.207C213.353 121.649 216.67 120.365 222.639 118.215C227.558 116.675 230.434 116.166 235.748 115.819C240.631 115.454 242.857 115.786 246.343 116.13C246.954 116.19 247.565 116.317 248.154 116.49C249.169 116.788 250.883 117.299 252.457 117.922C253.488 118.331 254.611 118.743 255.608 119.23C257.118 119.967 259.342 121.225 260.775 122.21" stroke="#141414" stroke-width="3"/>
<path d="M172.984 142.58C179.513 142.51 183.962 142.009 190.463 139.784C197.532 136.853 201.262 135.343 207.544 132.994C213.353 130.436 216.67 129.153 222.639 127.003C227.558 125.462 230.434 124.954 235.748 124.606C240.631 124.241 242.857 124.573 246.343 124.917C246.954 124.978 247.565 125.105 248.154 125.278C249.169 125.576 250.883 126.086 252.457 126.71C253.488 127.119 254.611 127.53 255.608 128.017C257.118 128.755 259.342 130.012 260.775 130.997" stroke="#141414" stroke-width="3"/>
<path d="M172.984 152.167C179.513 152.096 183.962 151.596 190.463 149.371C197.532 146.439 201.262 144.929 207.544 142.58C213.353 140.022 216.67 138.739 222.639 136.589C227.558 135.049 230.434 134.54 235.748 134.192C240.631 133.828 242.857 134.159 246.343 134.504C246.954 134.564 247.565 134.691 248.154 134.864C249.169 135.162 250.883 135.672 252.457 136.296C253.488 136.705 254.611 137.116 255.608 137.603C257.118 138.341 259.342 139.598 260.775 140.583" stroke="#141414" stroke-width="3"/>
<path d="M172.984 160.954C179.513 160.883 183.962 160.383 190.463 158.158C197.532 155.227 201.262 153.716 207.544 151.368C213.353 148.81 216.67 147.526 222.639 145.376C227.558 143.836 230.434 143.327 235.748 142.98C240.631 142.615 242.857 142.947 246.343 143.291C246.954 143.351 247.565 143.478 248.154 143.651C249.169 143.949 250.883 144.46 252.457 145.083C253.488 145.492 254.611 145.904 255.608 146.391C257.118 147.128 259.342 148.386 260.775 149.371" stroke="#141414" stroke-width="3"/>
<path d="M172.984 170.54C179.513 170.469 183.962 169.969 190.463 167.744C197.532 164.813 201.262 163.302 207.544 160.954C213.353 158.396 216.67 157.113 222.639 154.963C227.558 153.422 230.434 152.914 235.748 152.566C240.631 152.201 242.857 152.533 246.343 152.877C246.954 152.938 247.565 153.064 248.154 153.237C249.169 153.535 250.883 154.046 252.457 154.669C253.488 155.078 254.611 155.49 255.608 155.977C257.118 156.714 259.342 157.972 260.775 158.957" stroke="#141414" stroke-width="3"/>
<path d="M172.984 179.328C179.513 179.257 183.962 178.757 190.463 176.532C197.532 173.6 201.262 172.09 207.544 169.741C213.353 167.183 216.67 165.9 222.639 163.75C227.558 162.21 230.434 161.701 235.748 161.353C240.631 160.989 242.857 161.32 246.343 161.665C246.954 161.725 247.565 161.852 248.154 162.025C249.169 162.323 250.883 162.833 252.457 163.457C253.488 163.866 254.611 164.277 255.608 164.764C257.118 165.502 259.342 166.759 260.775 167.744" stroke="#141414" stroke-width="3"/>
<path d="M172.984 188.914C179.513 188.843 183.962 188.343 190.463 186.118C197.532 183.186 201.262 181.676 207.544 179.328C213.353 176.769 216.67 175.486 222.639 173.336C227.558 171.796 230.434 171.287 235.748 170.94C240.631 170.575 242.857 170.907 246.343 171.251C246.954 171.311 247.565 171.438 248.154 171.611C249.169 171.909 250.883 172.419 252.457 173.043C253.488 173.452 254.611 173.863 255.608 174.35C257.118 175.088 259.342 176.346 260.775 177.33" stroke="#141414" stroke-width="3"/>
<path d="M172.984 197.701C179.513 197.63 183.962 197.13 190.463 194.905C197.532 191.974 201.262 190.463 207.544 188.115C213.353 185.557 216.67 184.274 222.639 182.124C227.558 180.583 230.434 180.075 235.748 179.727C240.631 179.362 242.857 179.694 246.343 180.038C246.954 180.098 247.565 180.225 248.154 180.398C249.169 180.696 250.883 181.207 252.457 181.83C253.488 182.239 254.611 182.651 255.608 183.138C257.118 183.875 259.342 185.133 260.775 186.118" stroke="#141414" stroke-width="3"/>
<path d="M172.984 206.489C179.513 206.418 183.962 205.918 190.463 203.693C197.532 200.761 201.262 199.251 207.544 196.902C213.353 194.344 216.67 193.061 222.639 190.911C227.558 189.371 230.434 188.862 235.748 188.514C240.631 188.15 242.857 188.481 246.343 188.825C246.954 188.886 247.565 189.013 248.154 189.186C249.169 189.484 250.883 189.994 252.457 190.618C253.488 191.027 254.611 191.438 255.608 191.925C257.118 192.663 259.342 193.92 260.775 194.905" stroke="#141414" stroke-width="3"/>
<path d="M172.984 215.276C179.513 215.205 183.962 214.705 190.463 212.48C197.532 209.548 201.262 208.038 207.544 205.69C213.353 203.131 216.67 201.848 222.639 199.698C227.558 198.158 230.434 197.649 235.748 197.302C240.631 196.937 242.857 197.269 246.343 197.613C246.954 197.673 247.565 197.8 248.154 197.973C249.169 198.271 250.883 198.782 252.457 199.405C253.488 199.814 254.611 200.225 255.608 200.712C257.118 201.45 259.342 202.708 260.775 203.693" stroke="#141414" stroke-width="3"/>
<path d="M172.984 224.063C179.513 223.992 183.962 223.492 190.463 221.267C197.532 218.336 201.262 216.825 207.544 214.477C213.353 211.919 216.67 210.636 222.639 208.486C227.558 206.945 230.434 206.437 235.748 206.089C240.631 205.724 242.857 206.056 246.343 206.4C246.954 206.461 247.565 206.588 248.154 206.761C249.169 207.058 250.883 207.569 252.457 208.193C253.488 208.601 254.611 209.013 255.608 209.5C257.118 210.237 259.342 211.495 260.775 212.48" stroke="#141414" stroke-width="3"/>
<path d="M271.897 244.275V181.565" stroke="#141414" stroke-width="5"/>
<path d="M157.889 82.9071V241.991C157.889 243.881 158.954 245.61 160.643 246.459L162.823 247.555C163.239 247.764 163.683 247.915 164.141 247.999C167.997 248.705 170.141 248.877 173.381 248.669C179.598 248.125 182.908 247.702 188.075 246.746C188.342 246.697 188.607 246.625 188.862 246.532C194.916 244.328 197.724 243.01 202.38 240.68C208.253 238.341 211.114 237.142 215.886 235.088C220.382 233.448 222.904 232.65 227.406 231.494C230.952 230.747 232.955 230.494 236.543 230.295C239.578 230.282 241.123 230.383 243.693 230.695C248.258 231.591 250.323 232.234 253.624 233.491L258.35 235.318C258.642 235.431 258.923 235.571 259.188 235.736C261.666 237.28 263.141 238.225 265.542 239.881L269.303 242.907C269.443 243.02 269.572 243.147 269.687 243.286V243.286C270.672 244.474 272.452 244.59 273.583 243.541L276.375 240.949C276.568 240.77 276.774 240.607 276.992 240.46L281.431 237.485C283.445 235.951 284.462 235.302 286.198 234.29C288.427 232.988 289.734 232.476 292.157 231.893C294.185 231.45 295.374 231.193 297.205 230.804C297.546 230.731 297.894 230.695 298.242 230.695H304.471" stroke="#141414" stroke-width="5"/>
<path d="M260.774 72.9215C245.226 65.7635 236.34 64.922 221.05 70.5249C205.877 76.0852 199.603 80.1579 177.856 85.1878C177.527 85.2639 177.182 85.3084 176.844 85.3134C170.32 85.4104 165.236 84.4442 160.785 83.15C158.788 82.5693 156.618 83.172 155.298 84.7794L137.97 105.889C137.236 106.783 136.834 107.905 136.834 109.061V265.142C136.834 267.903 139.073 270.142 141.834 270.142H257.713C258.674 270.142 259.612 270.424 260.431 270.927C263.074 272.552 265.056 273.462 268.303 274.601C268.579 274.698 268.867 274.769 269.157 274.813C272.495 275.318 272.662 275.036 275.075 274.442C279.326 272.933 281.317 272.267 283.779 270.872C284.591 270.412 285.501 270.142 286.434 270.142H298.512" stroke="#141414" stroke-width="6"/>
<path d="M147.958 93.2922V255.06C148.074 256.2 147.958 257.688 149.149 257.856C150.341 258.024 177.751 260.443 184.901 259.644C192.051 258.845 205.955 255.06 211.914 253.462C217.872 251.864 227.406 249.867 233.365 249.867C236.087 249.867 240.24 250.062 244.09 251.183C248.667 252.515 252.815 254.825 253.624 255.06C255.039 255.469 260.925 258.871 261.52 259.216C261.556 259.237 261.587 259.254 261.623 259.272L263.953 260.443C264.839 260.943 265.456 261.212 266.733 261.641C268.054 262.067 268.835 262.243 270.308 262.44C271.915 262.704 273.884 262.839 275.473 262.44C277.062 262.041 277.062 262.041 278.253 261.242C279.445 260.443 279.445 260.443 280.637 259.644C281.682 258.943 282.299 258.52 283.079 258.183C283.301 258.087 283.541 258.046 283.782 258.046H286.993H290.965H298.513" stroke="#141414" stroke-width="3"/>
<path d="M152.327 89.298V249.068C152.436 250.134 153.153 251.591 154.109 252.158C154.24 252.236 154.384 252.277 154.534 252.304C161.022 253.475 176.261 254.051 184.901 253.462C193.64 252.866 208.736 247.87 211.914 247.071C215.092 246.272 228.566 243.773 230.584 243.476C232.602 243.18 236.94 242.34 239.721 242.677C242.501 243.015 246.871 243.876 250.446 245.873C253.787 247.739 259.209 251 259.906 251.42C259.956 251.45 260.004 251.482 260.052 251.517L264.35 254.66C266.556 255.886 267.873 256.326 270.308 256.848C271.915 257.112 273.884 257.247 275.473 256.848C277.061 256.449 277.061 256.449 278.253 255.65C279.445 254.851 279.445 254.851 280.637 254.052C281.682 253.351 282.299 252.928 283.079 252.591C283.301 252.495 283.541 252.454 283.782 252.454H286.993H290.965H298.513" stroke="#141414" stroke-width="3"/>
<path d="M142.793 100.881V260.652C142.899 261.684 142.924 263.411 143.712 264.075C143.876 264.213 144.097 264.257 144.31 264.277C159.534 265.725 169.414 266.328 184.901 265.045C195.575 264.248 206.352 262.249 212.311 260.652C218.27 259.054 228.995 257.856 233.365 257.856C237.735 257.856 251.638 260.665 253.624 261.45C255.513 262.197 260.994 265.308 261.527 265.612C261.558 265.629 261.585 265.643 261.616 265.659L263.953 266.834C264.839 267.334 265.456 267.603 266.733 268.032C268.054 268.458 268.835 268.634 270.309 268.831C271.915 269.095 273.884 269.23 275.473 268.831C277.062 268.431 277.062 268.431 278.253 267.632C279.445 266.834 279.445 266.834 280.637 266.035C281.682 265.334 282.299 264.91 283.079 264.574C283.301 264.478 283.541 264.437 283.783 264.437H286.993H290.965H298.513" stroke="#141414" stroke-width="3"/>
<path d="M138.026 269.439L158.286 245.074" stroke="#141414" stroke-width="5"/>
<path d="M259.583 270.637L270.05 247.889C270.769 246.326 272.995 246.34 273.694 247.911L283.814 270.637" stroke="#141414" stroke-width="5"/>
</g>
<path d="M271.101 -1L232 181.387H311L271.899 365" stroke="#141414" stroke-width="8"/>
</g>
<defs>
<clipPath id="clip0_15_2">
<rect width="544" height="364" fill="white"/>
</clipPath>
</defs>
</svg>
